<svg width="68" height="76" viewBox="0 0 68 76" fill="none" xmlns="http://www.w3.org/2000/svg">
<circle cx="6.29308" cy="57.8966" r="6.29308" fill="#CDB4DB"/>
<path d="M50.4421 72.7408C46.9449 72.7408 43.592 72.1811 40.3866 71.0595C37.1801 69.9379 34.7022 68.459 32.9531 66.6194L34.9035 62.7854C36.6074 64.4893 38.8721 65.8692 41.6976 66.923C44.5231 67.9768 47.4379 68.5031 50.4421 68.5031C54.6583 68.5031 57.8196 67.7303 59.9271 66.1824C62.0347 64.6357 63.0895 62.6282 63.0895 60.1623C63.0895 58.2786 62.5169 56.776 61.3738 55.6555C60.2296 54.5339 58.8292 53.6706 57.1695 53.0657C55.5097 52.4597 53.2008 51.7988 50.2408 51.0809C29.6939 46.5332 49.7823 24.9938 42.2476 26.5954C38.6364 27.3629 46.424 24.9787 51.4517 24.8463C54.1416 24.7753 56.7766 25.2166 59.3556 25.9561C61.9346 26.6966 64.1648 27.717 66.0485 29.0173L64.3672 32.9859C62.3942 31.6856 60.2866 30.7104 58.0435 30.0603C55.8014 29.4091 53.6045 29.1131 51.4517 29.084C40.2929 28.9355 37.9766 40.9037 45.0279 44.7916C46.6296 45.6753 49.0751 46.0585 51.9899 46.7764C55.4429 47.6278 58.234 48.4685 60.3641 49.2984C62.4943 50.1283 64.2994 51.3833 65.7794 53.0657C67.2594 54.747 68 57.0225 68 59.8932C68 62.2698 67.3606 64.4333 66.0829 66.3848C64.8042 68.3352 62.842 69.8819 60.1962 71.0261C57.5505 72.1692 54.2998 72.7408 50.4421 72.7408Z" fill="#303030"/>
<path d="M45.4822 17.1895V64.2766H41.3791L11.1082 26.0685V64.2766H6.13098V17.1895H10.2341L40.5718 55.3976V17.1895H45.4822Z" fill="#303030"/>
<path fill-rule="evenodd" clip-rule="evenodd" d="M42.9419 75.0278V0H44.0947V75.0278H42.9419Z" fill="#CDB4DB"/>
</svg>
